# xmcd
#
# Track frame offsets:
#	150
#	14656
#	31292
#	51823
#	67335
#	83097
#	102601
#	116109
#	129553
#	146905
#	162282
#	175138
#	193009
#	211819
#	227100
#
# Disc length: 3324 seconds
#
# Revision: 0
# Processed by: cddbd v1.5.1PL0 Copyright (c) Steve Scherf et al.
# Submitted via: audiograbber 1.83.01
#
DISCID=e00cfa0f
DTITLE=JOTA AMARAL - MAIOR ABADONADO
DYEAR=1900
DGENRE=FORRÓ
TTITLE0=SAFADINHA
TTITLE1=MAIOR ABADONADO
TTITLE2=SEMPRE TE AMEI
TTITLE3=EMBRIAGUÊS DE PAIXÃO
TTITLE4=CASO COMPLICADO
TTITLE5=POR AMOR
TTITLE6=DESPEITADO
TTITLE7=PENSE
TTITLE8=DUAS METADES
TTITLE9=PERGUNTAS SEM RESPOSTAS
TTITLE10=AMOR TRAIÇOEIRO
TTITLE11=AQUELE QUE VOCÊ AMA
TTITLE12=SEM MEDO DE SER FELIZ
TTITLE13=DELÍRIO DE PRAZER
TTITLE14=MINHA TRISTE HISTÓRIA
EXTD=
EXTT0=
EXTT1=
EXTT2=
EXTT3=
EXTT4=
EXTT5=
EXTT6=
EXTT7=
EXTT8=
EXTT9=
EXTT10=
EXTT11=
EXTT12=
EXTT13=
EXTT14=
PLAYORDER=
